<svg version="1.1" id="Layer_1" xmlns="http://www.w3.org/2000/svg" xmlns:xlink="http://www.w3.org/1999/xlink" x="0px" y="0px"
	 width="100%" viewBox="0 0 500 500" enable-background="new 0 0 500 500" xml:space="preserve">
<path fill="#000000" opacity="1.000000" stroke="none" 
	d="
M501.000000,268.000000 
	C501.000000,345.634583 501.000000,423.269196 501.000000,500.951904 
	C334.434235,500.951904 167.868469,500.951904 1.000000,500.951904 
	C1.000000,393.978760 1.000000,286.957214 1.233521,179.138153 
	C5.282960,180.908005 9.098879,183.475418 13.118402,186.434875 
	C26.887997,186.884644 40.453979,186.955460 54.019989,186.960815 
	C54.685413,186.961075 55.351063,186.389130 56.398193,186.050659 
	C66.785316,184.362625 73.267380,170.658112 68.372246,161.460480 
	C65.067154,155.250458 60.063866,152.814499 53.892975,150.579346 
	C41.413029,150.127502 29.143665,150.049561 16.874271,150.044586 
	C16.205755,150.044327 15.536993,150.653488 14.493740,150.950302 
	C13.205968,151.237488 12.217799,151.421753 11.392672,151.892075 
	C7.902027,153.881699 4.459877,155.956390 1.000000,158.000000 
	C1.000000,105.692345 1.000000,53.384697 1.000000,1.038522 
	C167.559189,1.038522 334.118378,1.038522 501.000000,1.038522 
	C501.000000,78.021133 501.000000,155.042725 500.602783,232.721161 
	C499.492584,229.930801 498.566650,226.511993 498.102600,223.031586 
	C495.806274,205.808289 490.744720,189.366333 483.311859,173.760391 
	C472.184204,150.396881 456.874115,130.202271 437.057343,113.289177 
	C425.931030,103.793198 414.016693,95.586342 401.092834,89.100014 
	C378.203278,77.612068 353.940948,70.554810 328.083862,69.818069 
	C328.049530,69.864342 328.131042,69.949814 327.911774,69.563362 
	C327.199493,69.110809 326.706482,68.986816 326.213470,68.986794 
	C253.901276,68.982658 181.589081,68.982765 109.276924,69.034012 
	C108.109657,69.034843 106.942841,69.666138 105.571442,69.981407 
	C105.367073,69.959595 104.980377,70.099014 104.711555,70.115417 
	C104.248711,70.425034 104.054688,70.718246 103.932465,71.016769 
	C104.004257,71.022079 104.014946,70.878494 103.766983,70.926003 
	C103.359314,71.026627 103.199600,71.079742 102.688446,71.176697 
	C100.173157,72.847862 97.490669,74.087624 95.935074,76.169434 
	C89.117241,85.293533 91.364746,98.822235 104.001312,104.427872 
	C105.766701,104.896408 107.360146,104.997894 109.170807,105.479645 
	C141.260483,105.905807 173.132935,105.957298 205.005386,105.959785 
	C205.681427,105.959839 206.357483,105.395042 207.374878,105.050163 
	C208.390121,105.340027 209.064011,105.673477 209.439987,106.136673 
	C199.975113,115.097641 190.520538,123.655197 181.754654,132.868057 
	C176.899979,137.970245 173.197464,144.168701 168.512329,149.932022 
	C145.996475,149.994019 123.943855,149.976196 101.891487,150.041641 
	C100.226860,150.046570 98.563995,150.644165 96.508698,150.940277 
	C88.767570,151.872360 84.103592,155.986801 81.548126,162.887695 
	C77.934219,172.646805 84.595558,184.436798 94.991455,186.365845 
	C97.214539,186.834137 99.196869,186.979523 101.180077,186.992569 
	C117.448479,187.099548 133.717026,187.181915 149.781479,187.571075 
	C143.288239,206.008316 139.418274,224.604614 138.507965,243.914215 
	C113.131912,243.984573 88.218872,243.973145 63.306034,244.037231 
	C61.794357,244.041122 60.284218,244.644852 58.410866,244.989304 
	C49.237751,248.286377 45.853035,253.413300 46.001091,263.257507 
	C46.112953,270.695160 50.733200,276.344757 59.108994,279.432373 
	C84.968422,279.884033 110.625763,279.919952 136.282669,280.044495 
	C138.170837,280.053650 140.055878,280.702087 141.952148,281.481079 
	C141.991837,283.237671 141.807648,284.612762 142.082947,285.888672 
	C149.544113,320.469086 165.214264,350.777893 189.796494,376.274628 
	C195.701843,382.399628 202.149902,388.106903 208.908066,393.274323 
	C215.535126,398.341492 222.875092,402.476288 229.964783,407.289368 
	C230.324097,407.762299 230.620773,407.966156 230.921585,408.136841 
	C230.925720,408.103668 230.860992,408.120544 230.990814,408.416351 
	C231.737045,408.873169 232.353455,409.034149 232.965454,409.142273 
	C232.961075,409.089386 232.855362,409.098572 232.985718,409.398010 
	C233.738205,409.862122 234.360352,410.026794 234.977997,410.132751 
	C234.973480,410.074036 234.856064,410.083374 234.984863,410.385315 
	C235.738724,410.854736 236.363754,411.022156 236.984314,411.127869 
	C236.979828,411.066132 236.856354,411.075348 236.983917,411.379059 
	C237.737976,411.851746 238.364471,412.020691 238.986435,412.127625 
	C238.981903,412.065582 238.857849,412.074890 238.984558,412.378662 
	C239.737015,412.851837 240.362747,413.021240 240.984039,413.129822 
	C240.979584,413.069000 240.857925,413.078156 240.984146,413.381042 
	C241.734085,413.853180 242.357788,414.022400 242.977173,414.134003 
	C242.972824,414.076385 242.857605,414.085358 242.983994,414.385803 
	C243.729630,414.855530 244.348877,415.024811 244.963669,415.147919 
	C244.959213,415.101715 244.866837,415.111023 245.030136,415.441254 
	C246.803192,416.218079 248.412949,416.664673 250.121948,417.101562 
	C250.221176,417.091797 250.202621,416.893250 250.148041,417.113342 
	C250.207458,417.684692 250.447433,417.833069 251.191727,417.885834 
	C263.350342,421.354523 275.130585,424.715942 287.104248,428.451355 
	C294.850067,429.502014 302.402496,430.178711 310.409241,430.913696 
	C313.912659,430.925903 316.961761,430.879822 320.473389,430.900757 
	C333.287964,431.363983 345.360565,429.599976 357.464478,427.153259 
	C376.436310,423.318237 394.161072,416.328308 410.714081,406.628754 
	C428.178284,396.395294 444.045929,383.911896 456.561737,367.798645 
	C464.221283,357.937561 472.084351,348.025787 478.155853,337.184662 
	C489.752472,316.477905 496.973816,294.117432 499.148560,270.300354 
	C499.223083,269.484009 500.358826,268.764587 501.000000,268.000000 
z"/>
<path fill="#6589AE" opacity="1.000000" stroke="none" 
	d="
M328.118164,69.771797 
	C353.940948,70.554810 378.203278,77.612068 401.092834,89.100014 
	C414.016693,95.586342 425.931030,103.793198 437.057343,113.289177 
	C456.874115,130.202271 472.184204,150.396881 483.311859,173.760391 
	C490.744720,189.366333 495.806274,205.808289 498.102600,223.031586 
	C498.566650,226.511993 499.492584,229.930801 500.602783,233.189011 
	C501.000000,244.354233 501.000000,255.708450 501.000000,267.531342 
	C500.358826,268.764587 499.223083,269.484009 499.148560,270.300354 
	C496.973816,294.117432 489.752472,316.477905 478.155853,337.184662 
	C472.084351,348.025787 464.221283,357.937561 456.561737,367.798645 
	C444.045929,383.911896 428.178284,396.395294 410.714081,406.628754 
	C394.161072,416.328308 376.436310,423.318237 357.464478,427.153259 
	C345.360565,429.599976 333.287964,431.363983 320.471375,430.442657 
	C319.976105,399.065491 319.945374,368.213470 320.386475,337.307190 
	C335.354828,337.220917 349.853241,337.037628 364.347076,337.217773 
	C372.108398,337.314270 377.637573,334.156006 381.860443,327.755554 
	C396.358551,305.781219 410.910187,283.840454 425.659912,262.034698 
	C431.212463,253.825821 431.223480,246.206375 425.665283,237.991821 
	C411.006470,216.327194 396.507233,194.552368 382.170380,172.673370 
	C377.615540,165.722321 371.753479,162.580292 363.403625,162.727173 
	C348.917999,162.982010 334.421722,162.629181 319.941315,162.092056 
	C319.968597,145.506577 320.158081,129.357498 319.903076,113.215431 
	C319.817535,107.802589 320.951111,104.667183 326.651184,102.412178 
	C338.636169,97.670799 340.560333,82.562546 330.988190,73.656944 
	C329.829529,72.578972 329.065247,71.077164 328.118164,69.771797 
z"/>
<path fill="#647FA8" opacity="1.000000" stroke="none" 
	d="
M54.103550,150.968719 
	C60.063866,152.814499 65.067154,155.250458 68.372246,161.460480 
	C73.267380,170.658112 66.785316,184.362625 55.932709,185.981110 
	C41.028694,185.977325 26.971746,186.010086 12.914798,186.042831 
	C9.098879,183.475418 5.282960,180.908005 1.233521,178.670288 
	C1.000000,172.312363 1.000000,165.624710 1.000000,158.468536 
	C4.459877,155.956390 7.902027,153.881699 11.392672,151.892075 
	C12.217799,151.421753 13.205968,151.237488 14.967720,151.004791 
	C28.578720,151.048203 41.341133,151.008453 54.103550,150.968719 
z"/>
<path fill="#627EA7" opacity="1.000000" stroke="none" 
	d="
M319.914642,337.361420 
	C319.945374,368.213470 319.976105,399.065491 320.008850,430.375610 
	C316.961761,430.879822 313.912659,430.925903 310.168579,430.605255 
	C301.952698,429.518127 294.431763,428.797729 286.910828,428.077362 
	C275.130585,424.715942 263.350342,421.354523 250.826981,418.028931 
	C250.123444,417.674255 250.163025,417.283752 250.202606,416.893250 
	C250.202621,416.893250 250.221176,417.091797 249.984253,416.752136 
	C248.120499,415.978668 246.493668,415.544861 244.866837,415.111023 
	C244.866837,415.111023 244.959213,415.101715 244.933838,414.773438 
	C244.224838,414.325226 243.541229,414.205292 242.857605,414.085358 
	C242.857605,414.085358 242.972824,414.076385 242.924484,413.769562 
	C242.203400,413.334534 241.530655,413.206360 240.857925,413.078186 
	C240.857925,413.078156 240.979584,413.069000 240.919312,412.771057 
	C240.191971,412.340363 239.524918,412.207611 238.857849,412.074890 
	C238.857849,412.074890 238.981903,412.065582 238.917755,411.770386 
	C238.187851,411.341888 237.522095,411.208618 236.856354,411.075348 
	C236.856354,411.075348 236.979828,411.066132 236.919174,410.766266 
	C236.191040,410.338715 235.523560,410.211029 234.856064,410.083374 
	C234.856064,410.083374 234.973480,410.074036 234.922852,409.762207 
	C234.199921,409.333130 233.527649,409.215851 232.855362,409.098572 
	C232.855362,409.098572 232.961075,409.089386 232.930801,408.755615 
	C232.220688,408.321381 231.540833,408.220978 230.860992,408.120544 
	C230.860992,408.120544 230.925720,408.103668 230.999969,407.809570 
	C230.683533,407.350403 230.292847,407.185364 229.902161,407.020294 
	C222.875092,402.476288 215.535126,398.341492 208.908066,393.274323 
	C202.149902,388.106903 195.701843,382.399628 189.796494,376.274628 
	C165.214264,350.777893 149.544113,320.469086 142.082947,285.888672 
	C141.807648,284.612762 141.991837,283.237671 141.910522,281.062408 
	C140.713364,279.799835 139.568192,279.022369 138.421707,279.020416 
	C111.916824,278.975494 85.411797,279.014801 58.906796,279.038452 
	C50.733200,276.344757 46.112953,270.695160 46.001091,263.257507 
	C45.853035,253.413300 49.237751,248.286377 58.892998,245.039612 
	C83.890572,245.044418 108.043655,245.048859 132.196259,244.943588 
	C134.456055,244.933746 136.712830,244.230652 138.971008,243.849411 
	C139.418274,224.604614 143.288239,206.008316 149.860184,187.245453 
	C149.398926,186.378784 148.655014,185.926636 147.910858,185.926178 
	C130.190964,185.915268 112.471039,185.952866 94.751122,185.981613 
	C84.595558,184.436798 77.934219,172.646805 81.548126,162.887695 
	C84.103592,155.986801 88.767570,151.872360 96.980453,150.994858 
	C120.091164,151.086365 142.338593,151.120621 164.585709,151.055115 
	C166.050156,151.050797 167.512360,150.284760 168.975616,149.873016 
	C173.197464,144.168701 176.899979,137.970245 181.754654,132.868057 
	C190.520538,123.655197 199.975113,115.097641 209.782318,106.187889 
	C210.722641,102.309334 208.137299,104.685936 206.335236,104.391975 
	C173.647736,104.369102 141.414993,104.366638 108.855591,104.224915 
	C106.962425,104.077370 105.395905,104.069107 103.829376,104.060837 
	C91.364746,98.822235 89.117241,85.293533 95.935074,76.169434 
	C97.490669,74.087624 100.173157,72.847862 102.813202,71.174103 
	C103.540939,71.078255 103.782784,70.995193 104.014946,70.878494 
	C104.014946,70.878494 104.004257,71.022079 104.116089,70.860596 
	C104.485680,70.507774 104.736496,70.307747 104.980377,70.099014 
	C104.980377,70.099014 105.367073,69.959595 106.050827,70.053131 
	C178.872665,70.130096 251.010742,70.114494 323.148834,70.090851 
	C324.809570,70.090309 326.470306,69.998863 328.131042,69.949814 
	C328.131042,69.949814 328.049530,69.864342 328.083862,69.818069 
	C329.065247,71.077164 329.829529,72.578972 330.988190,73.656944 
	C340.560333,82.562546 338.636169,97.670799 326.651184,102.412178 
	C320.951111,104.667183 319.817535,107.802589 319.903076,113.215431 
	C320.158081,129.357498 319.968597,145.506577 319.957550,162.205017 
	C319.962372,162.757126 319.989502,162.983765 319.523804,162.934052 
	C303.900116,162.873764 288.741974,162.899246 273.584229,162.835358 
	C267.260437,162.808716 262.187592,165.214279 258.685364,170.447220 
	C243.121674,193.702209 227.583923,216.974991 212.155304,240.319656 
	C207.999680,246.607422 207.948654,253.315216 212.108963,259.612610 
	C227.532883,282.959534 243.077728,306.226715 258.639771,329.481964 
	C261.904572,334.360748 266.620178,337.061005 272.529572,337.082001 
	C288.351990,337.138214 304.174988,337.040131 319.980164,337.093628 
	C319.962616,337.183868 319.914642,337.361420 319.914642,337.361420 
z"/>
<path fill="#C6D0DE" opacity="1.000000" stroke="none" 
	d="
M327.911774,69.563370 
	C326.470306,69.998863 324.809570,70.090309 323.148834,70.090851 
	C251.010742,70.114494 178.872665,70.130096 106.255196,70.074951 
	C106.942841,69.666138 108.109657,69.034843 109.276924,69.034012 
	C181.589081,68.982765 253.901276,68.982658 326.213470,68.986794 
	C326.706482,68.986816 327.199493,69.110809 327.911774,69.563370 
z"/>
<path fill="#F5F7F9" opacity="1.000000" stroke="none" 
	d="
M109.182236,104.364182 
	C141.414993,104.366638 173.647736,104.369102 206.331909,104.585266 
	C206.783310,104.798981 207.033524,105.093742 207.033524,105.093750 
	C206.357483,105.395042 205.681427,105.959839 205.005386,105.959785 
	C173.132935,105.957298 141.260483,105.905807 109.289795,105.315048 
	C109.191551,104.770203 109.182236,104.364182 109.182236,104.364182 
z"/>
<path fill="#E3E8EF" opacity="1.000000" stroke="none" 
	d="
M59.108994,279.432373 
	C85.411797,279.014801 111.916824,278.975494 138.421707,279.020416 
	C139.568192,279.022369 140.713364,279.799835 141.900757,280.634674 
	C140.055878,280.702087 138.170837,280.053650 136.282669,280.044495 
	C110.625763,279.919952 84.968422,279.884033 59.108994,279.432373 
z"/>
<path fill="#859ABA" opacity="1.000000" stroke="none" 
	d="
M138.507965,243.914215 
	C136.712830,244.230652 134.456055,244.933746 132.196259,244.943588 
	C108.043655,245.048859 83.890572,245.044418 59.255493,245.019760 
	C60.284218,244.644852 61.794357,244.041122 63.306034,244.037231 
	C88.218872,243.973145 113.131912,243.984573 138.507965,243.914215 
z"/>
<path fill="#F1F3F7" opacity="1.000000" stroke="none" 
	d="
M168.512329,149.932022 
	C167.512360,150.284760 166.050156,151.050797 164.585709,151.055115 
	C142.338593,151.120621 120.091164,151.086365 97.372063,151.020874 
	C98.563995,150.644165 100.226860,150.046570 101.891487,150.041641 
	C123.943855,149.976196 145.996475,149.994019 168.512329,149.932022 
z"/>
<path fill="#E6EAF0" opacity="1.000000" stroke="none" 
	d="
M94.991455,186.365845 
	C112.471039,185.952866 130.190964,185.915268 147.910858,185.926178 
	C148.655014,185.926636 149.398926,186.378784 150.064240,186.946121 
	C133.717026,187.181915 117.448479,187.099548 101.180077,186.992569 
	C99.196869,186.979523 97.214539,186.834137 94.991455,186.365845 
z"/>
<path fill="#E8ECF2" opacity="1.000000" stroke="none" 
	d="
M13.118402,186.434875 
	C26.971746,186.010086 41.028694,185.977325 55.551125,186.014099 
	C55.351063,186.389130 54.685413,186.961075 54.019989,186.960815 
	C40.453979,186.955460 26.887997,186.884644 13.118402,186.434875 
z"/>
<path fill="#F1F3F7" opacity="1.000000" stroke="none" 
	d="
M53.892975,150.579346 
	C41.341133,151.008453 28.578720,151.048203 15.342325,151.033447 
	C15.536993,150.653488 16.205755,150.044327 16.874271,150.044586 
	C29.143665,150.049561 41.413029,150.127502 53.892975,150.579346 
z"/>
<path fill="#DEE4EC" opacity="1.000000" stroke="none" 
	d="
M287.104248,428.451355 
	C294.431763,428.797729 301.952698,429.518127 309.714264,430.546936 
	C302.402496,430.178711 294.850067,429.502014 287.104248,428.451355 
z"/>
<path fill="#BAC7D8" opacity="1.000000" stroke="none" 
	d="
M108.855591,104.224915 
	C109.182236,104.364182 109.191551,104.770203 109.072571,104.934792 
	C107.360146,104.997894 105.766701,104.896408 104.001312,104.427879 
	C105.395905,104.069107 106.962425,104.077370 108.855591,104.224915 
z"/>
<path fill="#D5DCE7" opacity="1.000000" stroke="none" 
	d="
M245.030136,415.441284 
	C246.493668,415.544861 248.120499,415.978668 249.885040,416.761902 
	C248.412949,416.664673 246.803192,416.218079 245.030136,415.441284 
z"/>
<path fill="#BAC7D8" opacity="1.000000" stroke="none" 
	d="
M207.374878,105.050156 
	C207.033524,105.093742 206.783310,104.798981 206.786636,104.605682 
	C208.137299,104.685936 210.722641,102.309334 210.080231,106.058151 
	C209.064011,105.673477 208.390121,105.340027 207.374878,105.050156 
z"/>
<path fill="#D5DCE7" opacity="1.000000" stroke="none" 
	d="
M230.990814,408.416351 
	C231.540833,408.220978 232.220688,408.321381 232.935181,408.808472 
	C232.353455,409.034149 231.737045,408.873169 230.990814,408.416351 
z"/>
<path fill="#D5DCE7" opacity="1.000000" stroke="none" 
	d="
M232.985718,409.398010 
	C233.527649,409.215851 234.199921,409.333130 234.927353,409.820923 
	C234.360352,410.026794 233.738205,409.862122 232.985718,409.398010 
z"/>
<path fill="#D5DCE7" opacity="1.000000" stroke="none" 
	d="
M234.984863,410.385315 
	C235.523560,410.211029 236.191040,410.338715 236.923660,410.828003 
	C236.363754,411.022156 235.738724,410.854736 234.984863,410.385315 
z"/>
<path fill="#D5DCE7" opacity="1.000000" stroke="none" 
	d="
M236.983917,411.379059 
	C237.522095,411.208618 238.187851,411.341888 238.922272,411.832397 
	C238.364471,412.020691 237.737976,411.851746 236.983917,411.379059 
z"/>
<path fill="#D5DCE7" opacity="1.000000" stroke="none" 
	d="
M238.984558,412.378662 
	C239.524918,412.207611 240.191971,412.340363 240.923752,412.831909 
	C240.362747,413.021240 239.737015,412.851837 238.984558,412.378662 
z"/>
<path fill="#D5DCE7" opacity="1.000000" stroke="none" 
	d="
M240.984146,413.381073 
	C241.530655,413.206360 242.203400,413.334534 242.928833,413.827179 
	C242.357788,414.022400 241.734085,413.853180 240.984146,413.381073 
z"/>
<path fill="#D5DCE7" opacity="1.000000" stroke="none" 
	d="
M242.983994,414.385803 
	C243.541229,414.205292 244.224838,414.325226 244.938293,414.819641 
	C244.348877,415.024811 243.729630,414.855530 242.983994,414.385803 
z"/>
<path fill="#6589AE" opacity="1.000000" stroke="none" 
	d="
M103.766983,70.926003 
	C103.782784,70.995193 103.540939,71.078255 103.164658,71.130264 
	C103.199600,71.079742 103.359314,71.026627 103.766983,70.926003 
z"/>
<path fill="#6589AE" opacity="1.000000" stroke="none" 
	d="
M104.711555,70.115417 
	C104.736496,70.307747 104.485680,70.507774 104.044296,70.855286 
	C104.054688,70.718246 104.248711,70.425034 104.711555,70.115417 
z"/>
<path fill="#D5DCE7" opacity="1.000000" stroke="none" 
	d="
M229.964783,407.289368 
	C230.292847,407.185364 230.683533,407.350403 230.995834,407.842743 
	C230.620773,407.966156 230.324097,407.762299 229.964783,407.289368 
z"/>
<path fill="#D5DCE7" opacity="1.000000" stroke="none" 
	d="
M250.148026,417.113342 
	C250.163025,417.283752 250.123444,417.674255 250.448624,417.921692 
	C250.447433,417.833069 250.207458,417.684692 250.148026,417.113342 
z"/>
<path fill="#82E9F2" opacity="1.000000" stroke="none" 
	d="
M319.946136,162.644165 
	C334.421722,162.629181 348.917999,162.982010 363.403625,162.727173 
	C371.753479,162.580292 377.615540,165.722321 382.170380,172.673370 
	C396.507233,194.552368 411.006470,216.327194 425.665283,237.991821 
	C431.223480,246.206375 431.212463,253.825821 425.659912,262.034698 
	C410.910187,283.840454 396.358551,305.781219 381.860443,327.755554 
	C377.637573,334.156006 372.108398,337.314270 364.347076,337.217773 
	C349.853241,337.037628 335.354828,337.220917 320.386475,337.307190 
	C319.914642,337.361420 319.962616,337.183868 319.978394,336.624695 
	C320.024048,324.859192 320.053986,313.652802 320.077301,302.347717 
	C320.070709,302.248993 320.032684,302.054779 320.496704,302.105225 
	C331.454773,302.174957 341.950226,302.105621 352.442108,302.267059 
	C355.622009,302.316010 357.660736,301.234283 359.418579,298.555206 
	C369.286896,283.515320 379.258636,268.542419 389.321350,253.631866 
	C391.068420,251.043152 391.126038,249.041351 389.360779,246.427002 
	C379.200958,231.380524 369.270660,216.178192 359.005890,201.204636 
	C357.826569,199.484314 355.077576,197.927536 353.016998,197.876236 
	C342.033661,197.602829 331.037842,197.832764 320.005127,197.724976 
	C319.963928,197.561432 319.867828,197.238083 319.889160,196.754898 
	C319.936829,185.175735 319.963165,174.079742 319.989502,162.983765 
	C319.989502,162.983765 319.962372,162.757126 319.946136,162.644165 
z"/>
<path fill="#7CD5E3" opacity="1.000000" stroke="none" 
	d="
M320.083893,302.446442 
	C320.053986,313.652802 320.024048,324.859192 319.995941,336.534454 
	C304.174988,337.040131 288.351990,337.138214 272.529572,337.082001 
	C266.620178,337.061005 261.904572,334.360748 258.639771,329.481964 
	C243.077728,306.226715 227.532883,282.959534 212.108963,259.612610 
	C207.948654,253.315216 207.999680,246.607422 212.155304,240.319656 
	C227.583923,216.974991 243.121674,193.702209 258.685364,170.447220 
	C262.187592,165.214279 267.260437,162.808716 273.584229,162.835358 
	C288.741974,162.899246 303.900116,162.873764 319.523804,162.934052 
	C319.963165,174.079742 319.936829,185.175735 319.472900,196.801788 
	C308.395721,197.464462 297.755829,197.701004 287.116730,197.668503 
	C283.771118,197.658295 281.600220,198.742493 279.737213,201.585876 
	C269.986145,216.468216 260.131195,231.284210 250.134842,246.002701 
	C248.139191,248.941025 248.190903,251.122559 250.161880,254.027618 
	C260.057678,268.613373 269.858856,283.265961 279.465698,298.042999 
	C281.564331,301.271057 283.976379,302.304932 287.669159,302.264496 
	C298.472107,302.146149 309.278717,302.361725 320.083893,302.446442 
z"/>
<path fill="#627EA7" opacity="1.000000" stroke="none" 
	d="
M320.077301,302.347717 
	C309.278717,302.361725 298.472107,302.146149 287.669159,302.264496 
	C283.976379,302.304932 281.564331,301.271057 279.465698,298.042999 
	C269.858856,283.265961 260.057678,268.613373 250.161880,254.027618 
	C248.190903,251.122559 248.139191,248.941025 250.134842,246.002701 
	C260.131195,231.284210 269.986145,216.468216 279.737213,201.585876 
	C281.600220,198.742493 283.771118,197.658295 287.116730,197.668503 
	C297.755829,197.701004 308.395721,197.464462 319.451569,197.284973 
	C319.867828,197.238083 319.963928,197.561432 319.994324,198.202026 
	C320.027374,233.246689 320.030029,267.650726 320.032684,302.054779 
	C320.032684,302.054779 320.070709,302.248993 320.077301,302.347717 
z"/>
<path fill="#6589AE" opacity="1.000000" stroke="none" 
	d="
M320.496704,302.105225 
	C320.030029,267.650726 320.027374,233.246689 320.035522,198.365585 
	C331.037842,197.832764 342.033661,197.602829 353.016998,197.876236 
	C355.077576,197.927536 357.826569,199.484314 359.005890,201.204636 
	C369.270660,216.178192 379.200958,231.380524 389.360779,246.427002 
	C391.126038,249.041351 391.068420,251.043152 389.321350,253.631866 
	C379.258636,268.542419 369.286896,283.515320 359.418579,298.555206 
	C357.660736,301.234283 355.622009,302.316010 352.442108,302.267059 
	C341.950226,302.105621 331.454773,302.174957 320.496704,302.105225 
z"/>
</svg>